<svg width="20" height="20" viewBox="0 0 20 20" fill="none" xmlns="http://www.w3.org/2000/svg">
<g clip-path="url(#clip0_18_864)">
<path d="M15.4542 6.72705H10.3633V7.45432H15.4542V6.72705Z" fill="#C1C9E5"/>
<path d="M15.4542 12.5454H10.3633V13.2727H15.4542V12.5454Z" fill="#C1C9E5"/>
<path d="M8.03632 9.63659H5.41814C5.18676 9.63632 4.96493 9.54429 4.80132 9.38068C4.63771 9.21707 4.54568 8.99524 4.54541 8.76386V6.14568C4.54568 5.9143 4.63771 5.69247 4.80132 5.52886C4.96493 5.36525 5.18676 5.27321 5.41814 5.27295H8.03632C8.2677 5.27321 8.48953 5.36525 8.65314 5.52886C8.81675 5.69247 8.90878 5.9143 8.90905 6.14568V8.76386C8.90878 8.99524 8.81675 9.21707 8.65314 9.38068C8.48953 9.54429 8.2677 9.63632 8.03632 9.63659ZM5.41814 6.14568V8.76386H8.03684L8.03632 6.14568H5.41814Z" fill="#C1C9E5"/>
<path d="M8.03632 14.7272H5.41814C5.18676 14.727 4.96493 14.6503 4.80132 14.5139C4.63771 14.3776 4.54568 14.1927 4.54541 13.9999V11.8181C4.54568 11.6253 4.63771 11.4404 4.80132 11.3041C4.96493 11.1677 5.18676 11.091 5.41814 11.0908H8.03632C8.2677 11.091 8.48953 11.1677 8.65314 11.3041C8.81675 11.4404 8.90878 11.6253 8.90905 11.8181V13.9999C8.90878 14.1927 8.81675 14.3776 8.65314 14.5139C8.48953 14.6503 8.2677 14.727 8.03632 14.7272ZM5.41814 11.8181V13.9999H8.03684L8.03632 11.8181H5.41814Z" fill="#C1C9E5"/>
<path d="M15 1.24994C17.0711 1.24994 18.75 2.92887 18.75 4.99994V14.9999C18.75 17.071 17.0711 18.7499 15 18.7499H5C2.92893 18.7499 1.25 17.071 1.25 14.9999V4.99994C1.25 2.92887 2.92893 1.24994 5 1.24994H15Z" stroke="#C1C9E5" stroke-width="1.5"/>
</g>
<defs>
<clipPath id="clip0_18_864">
<rect width="20" height="20" fill="white"/>
</clipPath>
</defs>
</svg>
