<svg width="20" height="20" viewBox="0 0 20 20" fill="none" xmlns="http://www.w3.org/2000/svg">
<g clip-path="url(#clip0_78_473)">
<path d="M9.34678 2.72727C11.4775 2.72727 13.2935 4.28457 13.7032 6.40733C15.7629 6.82967 17.2727 8.70218 17.2727 10.8979C17.2727 13.4269 15.284 15.477 12.8307 15.477C12.1807 15.477 11.5505 15.3329 10.9733 15.0586L10.9585 15.0845C10.156 16.4332 8.7328 17.2727 7.16932 17.2727C4.71606 17.2727 2.72729 15.2226 2.72729 12.6936C2.72729 10.9755 3.6535 9.42805 5.0972 8.64219C4.9701 8.21358 4.90476 7.76464 4.90476 7.3064C4.90476 4.77741 6.89352 2.72727 9.34678 2.72727ZM8.82648 14.6322L8.73181 14.7141C8.41026 14.9788 8.03001 15.1587 7.62177 15.2355L7.49848 15.2554L7.49831 16.5798C8.28884 16.5096 9.02678 16.1868 9.62121 15.6648L9.73097 15.5646L8.82648 14.6322ZM5.58219 14.6936L4.6759 15.6278C5.24036 16.138 5.9382 16.4652 6.6894 16.5633L6.84032 16.5798L6.84015 15.2554C6.41735 15.1982 6.02034 15.0312 5.68192 14.7736L5.58219 14.6936ZM4.68423 13.0328L3.39948 13.0328C3.46009 13.7581 3.71475 14.4413 4.12908 15.0164L4.2203 15.138L5.13191 14.199C4.91929 13.8937 4.77356 13.5445 4.70592 13.1731L4.68423 13.0328ZM10.9392 13.0327L9.65443 13.0326L9.63467 13.1623C9.58124 13.4628 9.4767 13.7491 9.32676 14.0097L9.25973 14.1198L10.1751 15.0635C10.5811 14.5172 10.8406 13.8705 10.924 13.1811L10.9392 13.0327ZM11.5902 13.1435L11.571 13.3129C11.5194 13.7067 11.4186 14.0892 11.2716 14.4531C11.6098 14.6111 11.9696 14.7168 12.3416 14.7663L12.5017 14.7841L12.5016 13.4596C12.2254 13.4223 11.9596 13.338 11.7123 13.2107L11.5902 13.1435ZM14.4879 12.8365C14.1474 13.146 13.7322 13.3553 13.2832 13.4397L13.1599 13.4596L13.1597 14.7841C13.9503 14.7138 14.6882 14.3911 15.2826 13.8691L15.3924 13.7689L14.4879 12.8365ZM7.16932 10.7881C6.14847 10.7881 5.32089 11.6412 5.32089 12.6936C5.32089 13.746 6.14847 14.5991 7.16932 14.5991C8.19018 14.5991 9.01774 13.746 9.01774 12.6936C9.01774 11.6412 8.19018 10.7881 7.16932 10.7881ZM16.6006 11.237L15.3158 11.2369L15.2961 11.3665C15.2427 11.6671 15.1381 11.9533 14.9882 12.214L14.9211 12.3241L15.8365 13.2677C16.2425 12.7215 16.502 12.0747 16.5854 11.3854L16.6006 11.237ZM11.5166 12.9417L11.5189 12.9138L11.5196 12.8928L11.5166 12.9417ZM13.4363 9.09698L13.3753 9.23817C12.9969 10.0753 12.3786 10.7782 11.6063 11.2496L11.4684 11.3304L11.4192 11.3572C11.5109 11.6675 11.5705 11.9883 11.5964 12.3155C11.9323 12.6274 12.3679 12.8033 12.8307 12.8033C13.8516 12.8033 14.6792 11.9502 14.6792 10.8979C14.6792 10.1093 14.2102 9.41492 13.5202 9.12927L13.4363 9.09698ZM11.5221 12.563L11.5234 12.6402L11.5232 12.5923L11.5221 12.563ZM11.5991 12.3515L11.5123 12.3577L11.5534 12.3951L11.6019 12.3919L11.5991 12.3515ZM11.5123 12.3577C11.5131 12.3692 11.5138 12.3802 11.5145 12.3911L11.5123 12.3577ZM10.0755 10.1954L9.16662 11.1322C9.40228 11.4521 9.56275 11.8239 9.63398 12.2211L9.65441 12.3544L10.9392 12.3545C10.8764 11.6036 10.6057 10.8981 10.1657 10.3111L10.0755 10.1954ZM4.22027 10.2492L4.12907 10.3708C3.74434 10.9049 3.49728 11.5321 3.41542 12.1997L3.39948 12.3545L4.68421 12.3546C4.73211 11.978 4.85948 11.6209 5.05512 11.3051L5.13166 11.1886L4.22027 10.2492ZM11.2689 11.1769L11.2856 11.2267H11.286L11.2834 11.2181L11.2689 11.1769ZM11.2586 11.1473L11.2685 11.176L11.2641 11.1616L11.2586 11.1473ZM11.0039 9.24501C10.8401 9.39393 10.6582 9.52033 10.4627 9.62069C10.7515 9.94942 10.9929 10.3197 11.1788 10.7201C11.3892 10.6 11.5881 10.4593 11.7727 10.3001L11.9084 10.1774L11.0039 9.24501ZM6.84035 8.8074L6.68941 8.82395C5.98829 8.91549 5.33364 9.20657 4.79054 9.65983L4.6759 9.75942L5.58245 10.6939C5.90831 10.4182 6.29668 10.2312 6.71428 10.1522L6.84041 10.1318L6.84035 8.8074ZM7.4983 8.8074L7.49819 10.1318C7.89635 10.1856 8.27181 10.3368 8.59723 10.5697L8.70381 10.6504L9.6118 9.71421C9.05506 9.22861 8.37501 8.91782 7.64495 8.82339L7.4983 8.8074ZM15.7369 8.39962L14.828 9.33652C15.0637 9.65636 15.2242 10.0282 15.2954 10.4254L15.3158 10.5587L16.6006 10.5587C16.5378 9.80782 16.2671 9.10234 15.8272 8.51541L15.7369 8.39962ZM13.1166 7.64553L11.8319 7.64542L11.8121 7.77505C11.7587 8.07557 11.6542 8.36186 11.5042 8.6225L11.4372 8.73259L12.3526 9.67627C12.7586 9.12999 13.0181 8.48326 13.1015 7.79388L13.1166 7.64553ZM9.97407 9.14255L9.919 9.2121L9.91963 9.21263L9.92687 9.2097L9.97798 9.14584L9.97407 9.14255ZM9.34678 5.40093C8.32593 5.40093 7.49836 6.25403 7.49836 7.3064C7.49836 7.5648 7.54826 7.81567 7.64344 8.04774L7.68699 8.14601L7.78022 8.15744C8.57457 8.2701 9.31669 8.60167 9.93708 9.1118C10.6814 8.85444 11.1952 8.13194 11.1952 7.3064C11.1952 6.25403 10.3676 5.40093 9.34678 5.40093ZM13.4255 8.88132L13.4178 8.90204L13.4192 8.89986L13.4255 8.88132ZM13.7853 7.12229C13.7876 7.1835 13.7888 7.24487 13.7888 7.3064C13.7888 7.60969 13.7602 7.90918 13.7036 8.20288L13.6664 8.37839L13.6472 8.45411L13.7754 8.50377C13.9444 8.57474 14.1051 8.66455 14.2549 8.77137L14.3652 8.85465L15.2732 7.91847C14.8418 7.54224 14.3342 7.26935 13.7853 7.12229ZM5.2119 8.68222L5.20227 8.68724C5.20643 8.68506 5.20917 8.68364 5.2119 8.68222ZM5.1765 8.59967L5.16307 8.60705L5.2013 8.68473L5.1765 8.59967ZM5.35241 8.61245C5.35086 8.61318 5.3493 8.61392 5.34775 8.61465L5.35241 8.61245ZM5.5194 8.53766L5.48557 8.55213L5.53072 8.53311L5.5194 8.53766ZM5.5658 8.51813L5.53927 8.52959L5.56622 8.51857L5.5658 8.51813ZM6.86169 7.64558L5.57694 7.64554C5.59751 7.89183 5.64046 8.1338 5.70494 8.36909C6.10887 8.22383 6.53274 8.13925 6.96676 8.11916C6.92984 8.00418 6.90079 7.88628 6.87988 7.76627L6.86169 7.64558ZM7.52301 8.21885L7.5226 8.21928L7.52814 8.21972L7.52773 8.21928L7.52301 8.21885ZM7.45648 8.21395L7.48932 8.2162H7.4905L7.45648 8.21395ZM7.30064 8.20627L7.36483 8.20871C7.34351 8.20775 7.32209 8.20693 7.30064 8.20627ZM12.253 4.80816L11.3441 5.74504C11.5797 6.06488 11.7402 6.43669 11.8115 6.83389L11.8319 6.96721L13.1166 6.96725C13.0539 6.21634 12.7831 5.51087 12.3432 4.92393L12.253 4.80816ZM6.39775 4.86204C5.9608 5.42143 5.68104 6.09352 5.59288 6.8125L5.57694 6.96726L6.86168 6.96737C6.90958 6.5908 7.03696 6.23372 7.23259 5.91786L7.30912 5.80139L6.39775 4.86204ZM13.6288 6.48402L13.6287 6.48485L13.6325 6.50689L13.6288 6.48402ZM13.7145 6.46792L13.63 6.48397L13.6916 6.49631L13.7187 6.49156L13.7145 6.46792ZM9.01781 3.4202L8.86687 3.43675C8.16575 3.52828 7.51112 3.81938 6.96802 4.27264L6.85336 4.37223L7.75992 5.3067C8.08578 5.03099 8.47414 4.84403 8.89174 4.76503L9.01787 4.74459L9.01781 3.4202ZM9.67576 3.4202L9.67565 4.74459C10.0738 4.79841 10.4493 4.94956 10.7747 5.18252L10.8813 5.26319L11.7893 4.32701C11.2325 3.8414 10.5525 3.53061 9.82241 3.43618L9.67576 3.4202Z" fill="#C1C9E5"/>
</g>
<defs>
<clipPath id="clip0_78_473">
<rect width="16" height="16" fill="white" transform="translate(2 2)"/>
</clipPath>
</defs>
</svg>
