<svg width="20" height="20" viewBox="0 0 20 20" fill="none" xmlns="http://www.w3.org/2000/svg">
<path d="M16 7.99996C16 4.69153 13.3084 2 9.99998 2C6.6916 2 4 4.69153 4 7.99996C4 10.0894 5.07382 11.9324 6.69832 13.0072V17.6666C6.69832 17.7953 6.77238 17.9125 6.8886 17.9677C6.93416 17.9893 6.98304 18 7.03166 18C7.10695 18 7.18157 17.9745 7.24223 17.9252L9.99995 15.6797L12.7577 17.925C12.8576 18.0063 12.9953 18.0228 13.1115 17.9675C13.2277 17.9122 13.3017 17.7948 13.3016 17.6661L13.2967 13.0104C14.924 11.9362 16 10.0915 16 7.99996ZM10.2105 14.9912C10.0878 14.8914 9.91202 14.8914 9.78945 14.9912L7.36513 16.9652V13.3894C8.16098 13.7801 9.05523 13.9999 10 13.9999C10.943 13.9999 11.8357 13.781 12.6304 13.3917L12.6341 16.9645L10.2105 14.9912ZM9.99998 13.3331C7.05926 13.3331 4.66678 10.9407 4.66678 7.99996C4.66678 5.05924 7.05926 2.66678 9.99998 2.66678C12.9407 2.66678 15.3332 5.05924 15.3332 7.99996C15.3332 10.9407 12.9407 13.3331 9.99998 13.3331Z" fill="#B6BFD8" stroke="#B6BFD8" stroke-width="0.3"/>
<path d="M10.3346 3.66758C10.3346 3.48346 10.1854 3.33418 10.0012 3.33418C7.42798 3.33418 5.33447 5.42764 5.33447 8.00089C5.33447 8.07126 5.33616 8.14326 5.33944 8.21476C5.34766 8.39348 5.4951 8.53286 5.67219 8.53286C5.67732 8.53286 5.68257 8.53276 5.68775 8.53248C5.87172 8.52401 6.01394 8.36804 6.00547 8.18414C6.00263 8.12273 6.00119 8.06108 6.00119 8.00086C6.00119 5.7953 7.79554 4.00093 10.0011 4.00093C10.1854 4.00096 10.3346 3.85171 10.3346 3.66758Z" fill="#B6BFD8" stroke="#B6BFD8" stroke-width="0.3"/>
<path d="M14.6608 7.78672C14.6523 7.60278 14.4958 7.45944 14.3124 7.46909C14.1284 7.47759 13.9862 7.63362 13.9947 7.81753C13.9975 7.87759 13.9989 7.93922 13.9989 8.00068C13.9989 10.2062 12.2045 12.0006 9.99893 12.0006C9.81484 12.0006 9.66553 12.1499 9.66553 12.334C9.66553 12.5181 9.81481 12.6674 9.99893 12.6674C12.5722 12.6674 14.6657 10.574 14.6657 8.00072C14.6657 7.92897 14.6641 7.857 14.6608 7.78672Z" fill="#B6BFD8" stroke="#B6BFD8" stroke-width="0.3"/>
<path d="M9.999 10.7685C9.99906 10.7685 9.99909 10.7685 9.99916 10.7685C10.1045 10.7685 10.2037 10.7187 10.2666 10.6342L10.9739 9.68387L12.1472 9.5483C12.2519 9.53624 12.3448 9.4753 12.3976 9.38396C12.4504 9.29268 12.4568 9.1818 12.415 9.08499L11.9457 7.99734L12.4149 6.91343C12.4568 6.81668 12.4504 6.70581 12.3978 6.61443C12.3451 6.52312 12.2523 6.46206 12.1476 6.44981L10.9709 6.3124L10.2668 5.36416C10.204 5.2795 10.1048 5.22959 9.99934 5.22953C9.99928 5.22953 9.99922 5.22953 9.99916 5.22953C9.89381 5.22953 9.79462 5.27934 9.73175 5.36387L9.02453 6.31418L7.85128 6.44975C7.74653 6.46181 7.65371 6.52275 7.6009 6.61409C7.54815 6.70537 7.54165 6.81625 7.58346 6.91306L8.05281 8.00071L7.58359 9.08462C7.54171 9.18137 7.54809 9.29224 7.60071 9.38362C7.6534 9.47493 7.74618 9.53599 7.8509 9.54824L9.0275 9.68565L9.73156 10.6339C9.79437 10.7186 9.89353 10.7685 9.999 10.7685ZM9.24784 9.04005L8.37362 8.93796L8.72187 8.13337C8.7584 8.04899 8.75847 7.95327 8.72203 7.86884L8.37331 7.06071L9.24419 6.96009C9.33553 6.94956 9.4185 6.90171 9.4734 6.82793L9.99891 6.12184L10.5215 6.82568C10.5763 6.8995 10.6592 6.94737 10.7505 6.95809L11.6248 7.06018L11.2765 7.86477C11.24 7.94915 11.24 8.04487 11.2764 8.12934L11.6252 8.93746L10.7543 9.03809C10.6629 9.04862 10.5799 9.09646 10.5251 9.17021L9.9995 9.87637L9.47687 9.17249C9.42203 9.09859 9.33915 9.05071 9.24784 9.04005Z" fill="#B6BFD8" stroke="#B6BFD8" stroke-width="0.3"/>
<path d="M6.13118 9.02277C6.08087 8.84561 5.89627 8.74199 5.71918 8.79233C5.54205 8.84264 5.43902 9.02617 5.4893 9.2033L5.4919 9.21286C5.53362 9.35967 5.66759 9.45602 5.81312 9.45602C5.84312 9.45602 5.87359 9.45192 5.90393 9.44333C6.08106 9.39302 6.18409 9.20949 6.13384 9.03236L6.13118 9.02277Z" fill="#B6BFD8" stroke="#B6BFD8" stroke-width="0.3"/>
<path d="M14.1882 7.21991C14.2153 7.21991 14.2428 7.21656 14.2703 7.2096C14.4488 7.16444 14.5569 6.9831 14.5117 6.80463C14.5104 6.79957 14.509 6.79432 14.5076 6.78922C14.4583 6.61182 14.2746 6.50822 14.0972 6.5575C13.9198 6.60678 13.816 6.79082 13.8653 6.96822C13.9035 7.11931 14.0392 7.21991 14.1882 7.21991Z" fill="#B6BFD8" stroke="#B6BFD8" stroke-width="0.3"/>
</svg>
