<svg width="20" height="20" viewBox="0 0 20 20" fill="none" xmlns="http://www.w3.org/2000/svg">
<path d="M9.5646 6.69329L3.76996 7.60898C3.74044 7.61366 3.71315 7.62755 3.692 7.64867L2.76922 8.57144C2.75594 8.58462 2.74539 8.6003 2.7382 8.61757C2.731 8.63485 2.72729 8.65337 2.72729 8.67208C2.72729 8.6908 2.731 8.70932 2.7382 8.7266C2.74539 8.74387 2.75594 8.75955 2.76922 8.77273L5.12932 11.1328L4.46169 11.8019C4.4484 11.815 4.43786 11.8307 4.43066 11.848C4.42347 11.8653 4.41976 11.8838 4.41976 11.9025C4.41976 11.9212 4.42347 11.9397 4.43066 11.957C4.43786 11.9743 4.4484 11.99 4.46169 12.0032L6.08612 13.6276L5.44258 14.2725C5.42316 14.2923 5.40997 14.3174 5.40467 14.3447C5.39936 14.3719 5.40216 14.4001 5.41273 14.4257C5.42329 14.4514 5.44115 14.4734 5.4641 14.489C5.48704 14.5046 5.51406 14.5131 5.5418 14.5135C5.56046 14.5136 5.57895 14.51 5.59622 14.503C5.61349 14.4959 5.6292 14.4855 5.64245 14.4724L6.28598 13.8289L8.00538 15.5398C8.01855 15.553 8.03423 15.5636 8.0515 15.5708C8.06878 15.578 8.0873 15.5817 8.10602 15.5817C8.12473 15.5817 8.14326 15.578 8.16053 15.5708C8.1778 15.5636 8.19348 15.553 8.20666 15.5398L8.87571 14.8707L11.2358 17.2308C11.249 17.2441 11.2647 17.2546 11.2819 17.2618C11.2992 17.269 11.3177 17.2727 11.3364 17.2727C11.3552 17.2727 11.3737 17.269 11.391 17.2618C11.4082 17.2546 11.4239 17.2441 11.4371 17.2308L12.2876 16.3803L12.3641 16.3038C12.3852 16.2826 12.3991 16.2553 12.4038 16.2258L13.3082 10.4368L16.1842 7.55937C16.5892 7.15403 16.8788 6.64813 17.0234 6.0937C17.024 6.08757 17.024 6.0814 17.0234 6.07527C17.0655 5.91579 17.0948 5.75321 17.1112 5.58908L17.2686 3.99158C17.2853 3.82213 17.2643 3.65108 17.207 3.49074C17.1496 3.33041 17.0575 3.18479 16.937 3.06439C16.8166 2.94399 16.671 2.8518 16.5107 2.79447C16.3504 2.73714 16.1793 2.7161 16.0099 2.73286L14.4166 2.88595C14.2535 2.90244 14.0919 2.93135 13.9333 2.97242H13.912C13.357 3.11857 12.851 3.41021 12.4463 3.81723L9.5646 6.69329ZM6.17683 10.0867L3.95565 7.86696L9.22866 7.0349L6.17683 10.0867ZM3.06973 8.66925L3.71468 8.02713L5.98264 10.2866L5.3306 10.933L3.06973 8.66925ZM11.3294 16.9289L9.06139 14.668L9.70635 14.0231L11.9743 16.291L11.3294 16.9289ZM12.1345 16.0415L9.91472 13.8246L12.9665 10.7728L12.1345 16.0415ZM14.445 3.16519L16.041 3.00785C16.1688 2.99556 16.2977 3.01167 16.4185 3.05505C16.5394 3.09843 16.6491 3.168 16.7398 3.25876C16.8306 3.34953 16.9002 3.45925 16.9436 3.58006C16.9869 3.70088 17.003 3.82979 16.9908 3.95756L16.8334 5.55364C16.8334 5.61743 16.8164 5.68121 16.8065 5.745L14.255 3.19354C14.3174 3.18504 14.384 3.1737 14.445 3.16803V3.16519ZM13.9262 3.26442L16.7342 6.07244C16.5961 6.55421 16.3381 6.99312 15.9843 7.34816L8.09893 15.2392L6.48726 13.6276L10.5653 9.5495C10.5917 9.52294 10.6066 9.48702 10.6066 9.44957C10.6066 9.41212 10.5917 9.3762 10.5653 9.34964C10.5522 9.33635 10.5365 9.32581 10.5192 9.31861C10.5019 9.31141 10.4834 9.30771 10.4647 9.30771C10.446 9.30771 10.4275 9.31141 10.4102 9.31861C10.3929 9.32581 10.3772 9.33635 10.3641 9.34964L6.28598 13.4277L4.76219 11.9025L6.27606 10.3872L12.6462 4.0171C13.0027 3.66314 13.4431 3.40518 13.9262 3.26725V3.26442Z" fill="#C1C9E5" stroke="#C1C9E5" stroke-width="0.5"/>
<path d="M4.47819 15.8173C4.54784 15.8174 4.61664 15.8019 4.67947 15.7719L7.44639 14.482C7.67877 14.3752 7.8819 14.2138 8.03844 14.0116C8.19498 13.8094 8.3003 13.5723 8.34542 13.3205C8.39054 13.0688 8.37412 12.8099 8.29756 12.5659C8.22099 12.3218 8.08656 12.1 7.90573 11.9191C7.72489 11.7383 7.503 11.6038 7.25898 11.5273C7.01497 11.4507 6.75605 11.4343 6.50432 11.4794C6.25258 11.5245 6.01549 11.6299 5.81325 11.7864C5.61102 11.9429 5.44963 12.1461 5.34285 12.3785L4.05295 15.1454C4.01941 15.2171 4.00447 15.2962 4.0095 15.3752C4.01452 15.4542 4.03936 15.5307 4.08172 15.5977C4.12407 15.6646 4.18259 15.7198 4.25188 15.7582C4.32116 15.7965 4.39899 15.8169 4.47819 15.8173ZM4.30951 15.2659L5.59516 12.4975C5.68282 12.3068 5.81561 12.1402 5.98207 12.0123C6.14853 11.8844 6.34364 11.7989 6.55054 11.7633C6.62784 11.7503 6.70605 11.7437 6.78442 11.7434C6.97409 11.7449 7.16115 11.7877 7.33259 11.8688C7.50404 11.9499 7.65575 12.0674 7.77717 12.2131C7.8986 12.3588 7.98681 12.5292 8.03568 12.7125C8.08455 12.8958 8.0929 13.0875 8.06015 13.2743C8.02468 13.4811 7.93943 13.6761 7.81176 13.8425C7.68408 14.009 7.51782 14.1418 7.32732 14.2297L4.55899 15.5153C4.52407 15.532 4.48485 15.5374 4.44671 15.5309C4.40858 15.5244 4.37341 15.5062 4.34605 15.4788C4.31869 15.4514 4.30048 15.4163 4.29394 15.3781C4.2874 15.34 4.29284 15.3008 4.30951 15.2659Z" fill="#C1C9E5" stroke="#C1C9E5" stroke-width="0.5"/>
<path d="M13.559 7.92274C13.902 7.92283 14.2345 7.80394 14.4998 7.58634C14.765 7.36874 14.9466 7.0659 15.0135 6.72942C15.0805 6.39294 15.0287 6.04366 14.8669 5.7411C14.7052 5.43854 14.4435 5.20143 14.1266 5.07018C13.8096 4.93893 13.4569 4.92166 13.1286 5.02132C12.8004 5.12098 12.5168 5.3314 12.3263 5.61671C12.1358 5.90203 12.0501 6.24458 12.0839 6.58599C12.1176 6.92739 12.2687 7.24653 12.5114 7.489C12.6489 7.62673 12.8122 7.73595 12.9919 7.81038C13.1717 7.88482 13.3644 7.923 13.559 7.92274ZM12.7085 5.59383C12.8765 5.42684 13.0902 5.31334 13.3226 5.26765C13.555 5.22196 13.7957 5.24613 14.0145 5.3371C14.2332 5.42808 14.42 5.58178 14.5515 5.77883C14.6829 5.97588 14.7531 6.20745 14.7531 6.44432C14.7531 6.68119 14.6829 6.91275 14.5515 7.1098C14.42 7.30685 14.2332 7.46056 14.0145 7.55153C13.7957 7.6425 13.555 7.66667 13.3226 7.62098C13.0902 7.57529 12.8765 7.46179 12.7085 7.2948C12.5956 7.18366 12.506 7.05111 12.445 6.90492C12.384 6.75873 12.3528 6.60183 12.3532 6.44342C12.3536 6.28502 12.3856 6.12828 12.4474 5.9824C12.5091 5.83651 12.5993 5.70441 12.7127 5.59383H12.7085Z" fill="#C1C9E5" stroke="#C1C9E5" stroke-width="0.5"/>
</svg>
