<svg width="20" height="20" viewBox="0 0 20 20" fill="none" xmlns="http://www.w3.org/2000/svg">
<g clip-path="url(#clip0_78_489)">
<path d="M14.9557 8.19296C14.5973 8.38306 14.3069 8.81962 14.3069 9.16828C14.3069 9.51675 14.5973 9.64534 14.9557 9.4555C15.3138 9.26543 15.6045 8.82862 15.6045 8.48015C15.6045 8.1315 15.3138 8.00287 14.9557 8.19296Z" fill="#C1C9E5"/>
<path d="M14.9557 10.2483C14.5973 10.4384 14.3069 10.875 14.3069 11.2236C14.3069 11.5723 14.5973 11.7009 14.9557 11.5108C15.3138 11.3208 15.6045 10.884 15.6045 10.5355C15.6045 10.1871 15.3138 10.0582 14.9557 10.2483Z" fill="#C1C9E5"/>
<path d="M11.8021 11.2581C12.1603 11.068 12.4509 10.6314 12.4509 10.2827C12.4509 9.93404 12.1603 9.80544 11.8021 9.99551C11.4436 10.1856 11.1533 10.6222 11.1533 10.9709C11.1533 11.3195 11.4436 11.4481 11.8021 11.2581Z" fill="#C1C9E5"/>
<path d="M14.9557 12.3038C14.5973 12.4936 14.3069 12.9304 14.3069 13.2789C14.3069 13.6276 14.5973 13.7562 14.9557 13.5661C15.3138 13.376 15.6045 12.9394 15.6045 12.5908C15.6045 12.2423 15.3138 12.1137 14.9557 12.3038Z" fill="#C1C9E5"/>
<path d="M11.8021 14.1062C11.4436 14.2965 11.1533 14.7331 11.1533 15.0815C11.1533 15.4302 11.4435 15.5588 11.8021 15.3687C12.1603 15.1788 12.4509 14.7421 12.4509 14.3934C12.4509 14.0449 12.1603 13.9163 11.8021 14.1062Z" fill="#C1C9E5"/>
<path d="M11.8417 12.0509C11.4834 12.241 11.1931 12.6776 11.1931 13.0263C11.1931 13.3749 11.4833 13.5035 11.8417 13.3135C12.2001 13.1234 12.4907 12.6868 12.4907 12.3381C12.4907 11.9894 12.2001 11.8608 11.8417 12.0509Z" fill="#C1C9E5"/>
<path d="M16.143 5.30006L10.97 2.28091C10.6492 2.09356 10.288 2 9.9273 2C9.56677 2 9.20542 2.09356 8.88475 2.28091L3.71161 5.30006C3.10099 5.6565 2.72729 6.29847 2.72729 6.99122V13.0088C2.72729 13.7015 3.10095 14.3435 3.71161 14.6999L8.88478 17.7191C9.20542 17.9062 9.56677 18 9.9273 18C10.288 18 10.6492 17.9062 10.97 17.7191L16.143 14.6999C16.7534 14.3435 17.1273 13.7015 17.1273 13.0088V6.99122C17.1273 6.29847 16.7534 5.6565 16.143 5.30006ZM9.75351 17.3979C9.56029 17.3746 9.37057 17.3129 9.19742 17.212L4.02424 14.1928C3.59666 13.9432 3.33512 13.4938 3.33512 13.0088V6.99122C3.33512 6.80303 3.37501 6.62053 3.44792 6.45266L9.75354 10.1327L9.75351 17.3979ZM3.62123 6.15981C3.7295 6.02031 3.86532 5.89988 4.02424 5.80713L9.19742 2.78797C9.42211 2.65684 9.67459 2.59141 9.9273 2.59141C10.18 2.59141 10.4323 2.65688 10.6572 2.78797L15.8303 5.80713C15.9892 5.89988 16.1251 6.02028 16.2333 6.15981L9.9273 9.84003L3.62123 6.15981ZM16.5193 13.0088C16.5193 13.4938 16.2579 13.9432 15.8303 14.1928L10.6572 17.212C10.4841 17.3129 10.2945 17.3746 10.1011 17.3979V10.1327L16.4067 6.45269C16.4796 6.62053 16.5193 6.80306 16.5193 6.99125V13.0088H16.5193Z" fill="#C1C9E5"/>
<path d="M10.5537 3.39584C10.238 3.16865 9.71771 3.16275 9.3919 3.38325C9.0661 3.60353 9.05791 3.9669 9.3736 4.19412C9.68948 4.42153 10.2094 4.4274 10.5352 4.20694C10.8607 3.9864 10.8694 3.62344 10.5537 3.39584Z" fill="#C1C9E5"/>
<path d="M13.9852 5.61774C13.6696 5.39011 13.1495 5.38442 12.8237 5.6047C12.4981 5.82499 12.4897 6.18836 12.8054 6.41558C13.1213 6.64299 13.6411 6.64867 13.9669 6.42858C14.2927 6.20786 14.3011 5.84514 13.9852 5.61774Z" fill="#C1C9E5"/>
<path d="M7.02532 5.54937C6.70964 5.32193 6.18958 5.31628 5.86378 5.53656C5.53775 5.75706 5.52956 6.12 5.84525 6.34743C6.1609 6.57506 6.68102 6.58053 7.00701 6.36025C7.33256 6.13975 7.34097 5.77681 7.02532 5.54937Z" fill="#C1C9E5"/>
<path d="M10.4542 7.77096C10.1383 7.54353 9.61821 7.53787 9.29263 7.75815C8.96683 7.97865 8.95842 8.34159 9.27426 8.569C9.59017 8.79662 10.1098 8.80231 10.4358 8.58181C10.7614 8.36153 10.7699 7.99859 10.4542 7.77096Z" fill="#C1C9E5"/>
<path d="M10.4886 5.59746C10.1835 5.3778 9.68137 5.37215 9.36633 5.58508C9.05151 5.79802 9.04377 6.1488 9.34863 6.36846C9.65375 6.58808 10.1561 6.59377 10.4711 6.38083C10.7858 6.1679 10.7938 5.81711 10.4886 5.59746Z" fill="#C1C9E5"/>
<path d="M4.57486 9.75946C4.93323 9.94955 5.22389 9.82074 5.22389 9.47227C5.22389 9.12358 4.93323 8.68699 4.57486 8.49693C4.21674 8.30687 3.92627 8.43546 3.92627 8.78415C3.92627 9.13258 4.21674 9.56937 4.57486 9.75946Z" fill="#C1C9E5"/>
<path d="M8.194 15.2054C8.55233 15.3954 8.84258 15.2669 8.84258 14.9182C8.84258 14.5697 8.55233 14.1329 8.194 13.9428C7.83563 13.7529 7.54541 13.8816 7.54541 14.23C7.54541 14.5787 7.83563 15.0153 8.194 15.2054Z" fill="#C1C9E5"/>
<path d="M6.38736 12.4837C6.74569 12.6738 7.03613 12.5452 7.03613 12.1965C7.03613 11.848 6.74569 11.4112 6.38736 11.2214C6.02899 11.0313 5.73877 11.1599 5.73877 11.5084C5.73877 11.857 6.02899 12.2936 6.38736 12.4837Z" fill="#C1C9E5"/>
</g>
<defs>
<clipPath id="clip0_78_489">
<rect width="16" height="16" fill="white" transform="translate(2 2)"/>
</clipPath>
</defs>
</svg>
