<svg width="20" height="20" viewBox="0 0 20 20" fill="none" xmlns="http://www.w3.org/2000/svg">
<path fill-rule="evenodd" clip-rule="evenodd" d="M12.0158 1.92802C12.1073 2.00749 12.1766 2.10935 12.2169 2.22362C12.2572 2.33789 12.2672 2.46067 12.2458 2.57995V3.42399C12.1321 4.10828 12.0808 4.80149 12.0926 5.49507C12.0969 5.63881 12.123 5.78107 12.1699 5.91701C12.2053 6.09306 12.0739 6.10249 12.0926 6.2623C12.3977 7.5841 12.9021 8.85177 13.5886 10.0218C13.8011 9.87618 14.0099 9.72688 14.2407 9.59983C14.5269 9.51074 14.8234 9.4591 15.1229 9.4462C15.422 9.46317 15.7181 9.51473 16.0053 9.59983C17.1628 10.2198 17.9802 11.1796 18 12.9371C17.9871 13.3904 17.9228 13.8408 17.8083 14.2797C17.6538 14.5472 17.4838 14.7986 17.3481 15.0853C17.2303 15.1723 17.1808 15.3275 17.0793 15.4305C16.9703 15.5291 16.8795 15.6459 16.811 15.7758C16.6377 15.858 16.5402 16.0165 16.389 16.121C16.2411 16.2117 16.1111 16.3287 16.0053 16.4662C15.6377 16.5845 15.3909 16.8237 15.047 16.9648C14.7601 17.0873 14.2972 17.0336 14.0496 17.1951C13.5551 17.1262 12.9479 17.1713 12.5535 17.0032C12.3736 17.0198 12.1922 17.0068 12.0164 16.9648C11.639 16.8693 11.3892 16.6458 11.1342 16.4279C10.9694 16.2089 10.8494 15.9454 10.6738 15.7375C10.4855 15.9075 10.4368 16.2166 10.2518 16.3896C10.1374 16.6206 9.98134 16.8286 9.79156 17.0032C9.486 17.401 9.04968 17.6678 8.60239 17.924C8.25176 18.0242 7.89184 18.0884 7.52821 18.1157C6.75032 18.0497 5.97412 17.9818 5.37985 17.7321C5.25821 17.6362 5.02962 17.6477 4.88109 17.5787C4.74663 17.5019 4.60539 17.4377 4.45915 17.3868C4.25018 17.1868 4.01294 17.0148 3.80707 16.8114C3.53983 16.401 3.23767 16.0253 3.1165 15.4689C3.03674 15.459 3.10599 15.3003 3.03922 15.2771C3.03999 15.1868 2.97306 15.1641 3.00073 15.0468C2.95751 14.9099 2.93155 14.7683 2.92345 14.625C2.88786 14.3069 2.875 13.9867 2.88497 13.6667C2.91863 13.3417 2.9829 13.0206 3.07693 12.7077C3.15174 12.5908 3.19702 12.4449 3.26873 12.3241C3.34705 12.2176 3.41151 12.1016 3.46055 11.9788C3.57461 11.9267 3.61973 11.8057 3.69068 11.7103C3.93797 11.5235 4.15328 11.3034 4.45791 11.1732C4.55482 11.0527 4.77197 11.0528 4.87985 10.9431C4.97399 10.9377 5.06573 10.9113 5.14832 10.8658C5.21555 10.8307 5.33966 10.8525 5.37861 10.7885C5.97953 10.7465 6.68061 10.7075 7.18138 10.8658C7.31167 10.689 7.34181 10.4123 7.45 10.2136C7.53089 9.99902 7.63376 9.79339 7.75695 9.59999C7.94242 9.18407 8.1959 8.83677 8.40888 8.44899C8.39544 8.3952 8.3415 8.44575 8.33238 8.48748C8.28184 8.50092 8.27179 8.55486 8.21723 8.56476C8.19127 8.65394 8.08972 8.66754 8.06375 8.75656C7.87596 8.79907 7.8364 8.98948 7.68014 9.06351C7.44042 9.28407 7.17597 9.4799 6.91291 9.67727C6.28786 10.0764 5.57909 10.3259 4.84183 10.4062C3.81015 10.4658 3.07198 10.2323 2.15669 10.1759C1.95236 9.99643 2.00862 9.55671 2.00321 9.1785C2.14017 8.5392 2.35931 7.9203 2.65514 7.33725C2.77172 7.04452 2.91292 6.76221 3.07723 6.49336C3.21409 6.23154 3.38151 5.98686 3.57599 5.76447C4.29376 4.81996 5.34801 4.21193 6.87489 4.07654H7.48864C7.78609 4.10624 8.081 4.15753 8.37102 4.23001C8.45854 4.30646 8.56414 4.35929 8.67781 4.38349C8.74319 4.45876 8.76746 4.57514 8.86978 4.61362C9.51289 4.33542 9.93205 3.83465 10.2891 3.27098C10.3324 3.07005 10.1852 2.91363 10.2891 2.77221C10.3582 2.47067 10.6126 2.35491 10.8262 2.19679C11.0665 2.05961 11.3246 1.95637 11.5932 1.89C11.7352 1.87531 11.8787 1.88822 12.0158 1.92802ZM11.2869 2.73342C11.2061 2.76758 11.1735 2.85027 11.0568 2.84857C11.0466 2.98674 11.1277 3.03404 11.134 3.15536C11.0568 3.27005 11.1123 3.51734 11.0957 3.69246C11.2186 3.76633 11.2892 3.66974 11.441 3.73079C11.5255 3.37924 11.5641 3.01823 11.556 2.65676C11.5538 2.63327 11.5503 2.61132 11.5177 2.61843C11.4659 2.68242 11.3466 2.67794 11.2869 2.73342ZM10.5582 4.34454C10.2971 4.67608 9.97062 4.95035 9.59898 5.15025C9.6379 5.28817 9.66377 5.42944 9.67626 5.57219C9.64295 5.71021 9.62998 5.85237 9.63777 5.99414C9.57394 6.04545 9.62495 6.21145 9.5605 6.26261C9.59218 6.36276 9.44442 6.47312 9.5605 6.53123C9.75848 6.1912 9.99728 5.89383 10.1742 5.53386C10.364 5.18642 10.5801 4.86571 10.6347 4.38303C10.6262 4.35304 10.6027 4.33835 10.558 4.34454H10.5582ZM7.45154 4.91996C7.05711 4.89647 6.74057 4.9501 6.37736 4.95844C5.21184 5.1739 4.46424 5.80712 3.92251 6.64622C3.64484 7.08123 3.4134 7.54407 3.23195 8.0272C3.08899 8.22967 3.03906 8.52503 2.925 8.75609C2.86704 9.01065 2.70738 9.34913 2.77152 9.60014C3.41031 9.51729 4.02684 9.63476 4.72792 9.60014C4.89468 9.56382 5.11756 9.54465 5.18819 9.52286C5.22343 9.51219 5.2681 9.53306 5.30334 9.52286C5.32111 9.51745 5.39608 9.45331 5.41833 9.44558C5.52993 9.41003 5.63472 9.40539 5.72544 9.3683C5.7528 9.35717 5.80194 9.30648 5.84043 9.29102C5.97364 9.23845 6.10201 9.17432 6.22405 9.09937C7.20225 8.53307 7.94057 7.64946 8.67905 6.91268C8.72449 6.62582 8.84767 6.41639 8.90934 6.14561C8.92016 5.99028 8.97503 5.87899 8.98662 5.72351C8.93654 5.55349 9.12418 5.38348 8.90934 5.37838C8.6758 5.36292 8.81754 5.72135 8.71754 5.83866C8.69466 6.04607 8.62403 6.20542 8.41043 6.22227C8.33909 6.1776 8.28046 6.11532 8.24017 6.04141C8.19989 5.96751 8.17932 5.88448 8.18044 5.80032C8.01568 5.85201 7.86025 5.92971 7.72001 6.03046C7.54103 6.38852 7.36201 6.74653 7.18293 7.10448C7.10801 7.28608 7.00442 7.45448 6.87613 7.60325C6.80241 7.79814 6.75881 8.02287 6.49236 8.02519C6.32018 8.00587 6.27366 7.86028 6.22405 7.71839C6.24216 7.5481 6.28082 7.38063 6.33919 7.21963C6.37505 7.10062 6.54877 6.91994 6.45418 6.79769C6.25727 6.98439 6.04043 7.15116 5.84043 7.33478C5.82899 7.41283 5.73657 7.40989 5.72544 7.4881C5.68031 7.54544 5.56593 7.53338 5.57181 7.64157C5.44615 7.70773 5.39082 7.84389 5.26501 7.9102C5.08835 8.11715 4.89206 8.30432 4.72792 8.5238C4.44971 8.62982 4.39206 8.95532 4.03751 8.98423C4.00289 8.91653 3.89624 8.92085 3.88403 8.83075C3.88017 8.55841 4.06069 8.47047 4.1525 8.29381C4.22978 8.10278 4.38511 7.98918 4.45945 7.79505C4.59803 7.66453 4.72629 7.52346 4.84307 7.37311C4.92962 7.33184 4.95481 7.22906 5.03487 7.1813C5.04384 7.12659 5.09793 7.11654 5.11215 7.06616C5.17104 7.06616 5.23827 6.96152 5.11215 6.98888C4.97475 7.05595 4.74477 7.03076 4.61339 7.10387C4.46564 7.13215 4.19067 7.20587 4.15311 7.02659C4.13101 6.78687 4.26904 6.70773 4.42174 6.64297C4.54557 6.51758 4.7074 6.43666 4.88201 6.41284C5.1732 6.24283 5.57939 6.18965 6.03286 6.1827C6.04832 6.09646 6.23641 6.18162 6.26299 6.10542C6.30148 6.02907 6.43301 6.04499 6.41647 5.91361C6.1409 5.85674 5.82096 5.84437 5.80272 5.53016C5.90535 5.37699 6.18339 5.39924 6.33981 5.29986C6.49437 5.32629 6.55866 5.26308 6.68509 5.26153C6.95416 5.24537 7.22418 5.25822 7.4905 5.29986C7.7245 5.13572 8.02913 5.27761 8.25772 5.10821C8.06622 4.96942 7.72449 4.979 7.45077 4.91996H7.45154ZM11.0959 5.15025C10.7177 6.31918 9.97935 7.1286 9.44627 8.14235C9.32277 8.39484 9.18178 8.63839 9.02433 8.87124C8.90671 9.14945 8.71862 9.3581 8.60239 9.63832C8.43644 9.87323 8.30708 10.132 8.21877 10.4057C8.12263 10.5012 8.11058 10.6803 8.02697 10.7892C8.03099 10.9848 7.8755 11.0946 7.94969 11.2494C8.13516 11.3204 8.43515 11.2756 8.67843 11.2879C8.85462 11.3292 8.98987 11.4116 9.17719 11.4414C9.30254 11.5529 9.44494 11.6435 9.59898 11.7099C9.98679 12.0756 10.311 12.5034 10.5582 12.9757C10.613 13.2916 10.764 13.5115 10.7883 13.8581C10.8247 14.0216 10.8376 14.1895 10.8268 14.3567C10.8356 14.5397 10.9985 14.5686 11.0953 14.6636C11.1551 14.5701 11.1745 14.436 11.2486 14.3567C11.3337 14.2757 11.3296 14.1051 11.5172 14.1265C11.7954 14.1551 11.6872 14.5698 11.709 14.8554C11.6472 14.9978 11.6772 15.2327 11.6705 15.4309C11.801 15.4795 11.8158 15.6435 11.9775 15.661C11.9932 15.4491 12.0451 15.2414 12.131 15.0471C12.2075 14.8554 12.2546 14.6336 12.5146 14.6253C12.9617 14.8316 12.6011 15.5692 12.6296 16.0446C12.7411 16.093 12.8566 16.1315 12.9748 16.1597C13.134 16.012 12.996 15.5672 13.3201 15.5842C13.5957 15.6411 13.6447 15.9253 13.6271 16.2747C14.0211 16.3588 14.4323 16.2903 14.7778 16.0829H15.0847C15.1911 15.9718 15.3518 15.9152 15.4682 15.8145C15.639 15.7548 15.7102 15.5959 15.8903 15.5458C16.1095 15.3146 16.3539 15.1088 16.619 14.9321C16.6523 14.7735 16.7776 14.7071 16.811 14.5485C16.9192 14.4525 16.9326 14.2612 17.041 14.1649C17.0371 13.6239 17.1998 13.2496 17.1561 12.6689C17.0529 11.4806 16.4779 10.7643 15.6218 10.3289C15.4926 10.3101 15.3646 10.2843 15.2382 10.2516C15.0591 10.2516 14.8801 10.2516 14.7011 10.2516C14.4907 10.3118 14.2855 10.3889 14.0874 10.4819C13.9938 10.5865 14.1895 10.6348 14.2407 10.712C14.3521 10.7667 14.3274 10.9579 14.471 10.9805C14.6945 10.8845 14.813 10.6833 15.1229 10.6735C15.2013 10.7183 15.2627 10.7877 15.2974 10.871C15.3322 10.9543 15.3383 11.0468 15.3149 11.134C15.1649 11.534 14.768 11.6867 14.3175 11.7861H13.6271C13.4278 11.7469 13.2344 11.6826 13.0513 11.5947C12.8718 11.5091 12.6402 11.4646 12.6676 11.1728C12.6957 11.0603 12.7841 11.0079 12.8595 10.9426H13.0897C13.1733 10.9182 13.2116 11.0508 13.2047 10.9043C13.1428 10.7238 12.8874 10.7355 12.7061 10.674H12.1307C12.1235 10.7309 12.0379 10.7093 11.9772 10.7125C11.9161 10.7763 11.8347 10.8169 11.747 10.8275C11.6659 10.8739 11.6356 10.9718 11.5169 10.981C11.3469 11.1694 11.1948 11.3751 11.0181 11.5564C10.8694 11.7785 10.747 12.0269 10.4812 12.1318C10.3189 12.0768 10.0554 12.1228 10.0206 11.94C10.0299 11.2585 10.4494 10.9876 10.7497 10.5973C10.9004 10.5819 10.9135 10.4287 11.0565 10.4057C11.1568 10.3179 11.2745 10.2523 11.4019 10.2133C11.6028 10.0688 11.9164 10.0374 12.2075 9.98313H12.6677C12.5223 9.60416 12.2881 9.31405 12.1691 8.90896C11.9745 8.56676 11.8639 8.14018 11.7089 7.75827C11.4936 6.89939 11.2588 6.05998 11.1719 5.07297C11.1633 5.04314 11.1398 5.0283 11.0946 5.03464L11.0959 5.15025ZM5.38016 11.633C5.01401 11.8168 4.76826 12.121 4.49779 12.4003C4.29461 12.8204 4.17723 13.2769 4.1525 13.7429C4.14425 14.039 4.17018 14.3351 4.22978 14.6253C4.2746 14.7279 4.32993 14.5253 4.38325 14.5101C4.42979 14.431 4.49575 14.3649 4.5749 14.3183C4.63397 14.2433 4.70996 14.1834 4.79665 14.1434C4.88334 14.1034 4.97826 14.0845 5.07366 14.0882C5.08495 14.1664 5.17737 14.1635 5.18866 14.2417C5.05713 14.7624 4.71385 15.071 4.5749 15.5842C4.59422 15.744 4.70907 15.8081 4.72839 15.9678C4.92159 15.9308 4.88897 15.6679 5.03533 15.5842C5.12142 15.4275 5.20536 15.2678 5.45729 15.2774C5.66007 15.3826 5.55095 15.7509 5.49561 15.9295C5.37541 16.1192 5.28482 16.3262 5.22699 16.5432C5.34692 16.5896 5.39392 16.7089 5.53379 16.7352C5.71493 16.6219 5.69623 16.3091 6.0327 16.3514C6.36145 16.4171 6.1837 16.912 6.10998 17.1188C6.65935 17.2703 7.2265 17.3476 7.79637 17.3488C8.04459 17.2645 8.32048 17.2078 8.56375 17.1188C8.73048 16.9792 8.8845 16.8251 9.02402 16.6584C9.19404 16.5211 9.26698 16.2874 9.44596 16.1597C9.45369 16.0138 9.60732 16.014 9.59929 15.8528C9.71691 15.8168 9.69372 15.6401 9.79125 15.5842C9.89078 15.3623 9.96783 15.131 10.0212 14.8938V14.1649C9.98161 13.8335 9.89111 13.5103 9.75292 13.2066C9.61406 12.946 9.44684 12.7016 9.25431 12.4777C8.85911 12.195 8.50764 11.8687 7.79637 11.9023C7.73624 12.2062 7.73624 12.5189 7.79637 12.8228C7.96001 12.8592 8.128 12.8721 8.29529 12.8613C8.37349 12.786 8.53516 12.7944 8.56375 12.6695C8.7044 12.6567 8.7183 12.5174 8.90903 12.5544C9.03608 12.5678 9.07534 12.6694 9.13902 12.7462C9.16313 13.384 8.70996 13.5446 8.14165 13.5902C7.7007 13.5452 7.28231 13.4779 6.99096 13.2833C6.80302 13.2281 6.70534 13.0823 6.53053 13.0146C6.42404 12.8655 6.2463 12.7876 6.30039 12.4777C6.47365 12.2613 6.75248 12.4391 6.99096 12.4777C6.97506 12.2213 6.98791 11.964 7.02929 11.7105C6.60209 11.4947 5.90828 11.5598 5.37938 11.633H5.38016Z" fill="#C1C9E5"/>
</svg>
