<svg width="20" height="20" viewBox="0 0 20 20" fill="none" xmlns="http://www.w3.org/2000/svg">
<mask id="path-1-inside-1_78_437" fill="white">
<path d="M8.47623 2.00005H2.38095C2.27992 2.00005 2.18302 2.04019 2.11158 2.11163C2.04014 2.18308 2 2.27997 2 2.38101V8.47629C2 8.57732 2.04014 8.67422 2.11158 8.74566C2.18302 8.81711 2.27992 8.85724 2.38095 8.85724H8.47623C8.57727 8.85724 8.67417 8.81711 8.74561 8.74566C8.81705 8.67422 8.85719 8.57732 8.85719 8.47629V2.38101C8.85719 2.27997 8.81705 2.18308 8.74561 2.11163C8.67417 2.04019 8.57727 2.00005 8.47623 2.00005ZM8.09528 8.09533H2.76191V2.76196H8.09528V8.09533ZM17.6192 2.00005H11.5239C11.4228 2.00005 11.3259 2.04019 11.2545 2.11163C11.1831 2.18308 11.1429 2.27997 11.1429 2.38101V8.47629C11.1429 8.57732 11.1831 8.67422 11.2545 8.74566C11.3259 8.81711 11.4228 8.85724 11.5239 8.85724H17.6192C17.7202 8.85724 17.8171 8.81711 17.8885 8.74566C17.96 8.67422 18.0001 8.57732 18.0001 8.47629V2.38101C18.0001 2.27997 17.96 2.18308 17.8885 2.11163C17.8171 2.04019 17.7202 2.00005 17.6192 2.00005ZM17.2382 8.09533H11.9048V2.76196H17.2382V8.09533ZM8.47623 11.143H2.38095C2.27992 11.143 2.18302 11.1831 2.11158 11.2546C2.04014 11.326 2 11.4229 2 11.5239V17.6192C2.00001 17.7202 2.04014 17.8171 2.11158 17.8886C2.18303 17.96 2.27992 18.0002 2.38095 18.0002H8.47623C8.57727 18.0002 8.67416 17.96 8.7456 17.8886C8.81705 17.8171 8.85718 17.7202 8.85719 17.6192V11.5239C8.85719 11.4229 8.81705 11.326 8.74561 11.2546C8.67417 11.1831 8.57727 11.143 8.47623 11.143ZM8.09528 17.2383H2.76191V11.9049H8.09528V17.2383ZM17.6192 11.143H11.5239C11.4228 11.143 11.3259 11.1831 11.2545 11.2546C11.1831 11.326 11.1429 11.4229 11.1429 11.5239V17.6192C11.1429 17.7202 11.1831 17.8171 11.2545 17.8886C11.3259 17.96 11.4228 18.0002 11.5239 18.0002H17.6192C17.7202 18.0002 17.8171 17.96 17.8885 17.8886C17.96 17.8171 18.0001 17.7202 18.0001 17.6192V11.5239C18.0001 11.4229 17.96 11.326 17.8885 11.2546C17.8171 11.1831 17.7202 11.143 17.6192 11.143ZM17.2382 17.2383H11.9048V11.9049H17.2382V17.2383Z"/>
</mask>
<path d="M8.47623 2.00005H2.38095C2.27992 2.00005 2.18302 2.04019 2.11158 2.11163C2.04014 2.18308 2 2.27997 2 2.38101V8.47629C2 8.57732 2.04014 8.67422 2.11158 8.74566C2.18302 8.81711 2.27992 8.85724 2.38095 8.85724H8.47623C8.57727 8.85724 8.67417 8.81711 8.74561 8.74566C8.81705 8.67422 8.85719 8.57732 8.85719 8.47629V2.38101C8.85719 2.27997 8.81705 2.18308 8.74561 2.11163C8.67417 2.04019 8.57727 2.00005 8.47623 2.00005ZM8.09528 8.09533H2.76191V2.76196H8.09528V8.09533ZM17.6192 2.00005H11.5239C11.4228 2.00005 11.3259 2.04019 11.2545 2.11163C11.1831 2.18308 11.1429 2.27997 11.1429 2.38101V8.47629C11.1429 8.57732 11.1831 8.67422 11.2545 8.74566C11.3259 8.81711 11.4228 8.85724 11.5239 8.85724H17.6192C17.7202 8.85724 17.8171 8.81711 17.8885 8.74566C17.96 8.67422 18.0001 8.57732 18.0001 8.47629V2.38101C18.0001 2.27997 17.96 2.18308 17.8885 2.11163C17.8171 2.04019 17.7202 2.00005 17.6192 2.00005ZM17.2382 8.09533H11.9048V2.76196H17.2382V8.09533ZM8.47623 11.143H2.38095C2.27992 11.143 2.18302 11.1831 2.11158 11.2546C2.04014 11.326 2 11.4229 2 11.5239V17.6192C2.00001 17.7202 2.04014 17.8171 2.11158 17.8886C2.18303 17.96 2.27992 18.0002 2.38095 18.0002H8.47623C8.57727 18.0002 8.67416 17.96 8.7456 17.8886C8.81705 17.8171 8.85718 17.7202 8.85719 17.6192V11.5239C8.85719 11.4229 8.81705 11.326 8.74561 11.2546C8.67417 11.1831 8.57727 11.143 8.47623 11.143ZM8.09528 17.2383H2.76191V11.9049H8.09528V17.2383ZM17.6192 11.143H11.5239C11.4228 11.143 11.3259 11.1831 11.2545 11.2546C11.1831 11.326 11.1429 11.4229 11.1429 11.5239V17.6192C11.1429 17.7202 11.1831 17.8171 11.2545 17.8886C11.3259 17.96 11.4228 18.0002 11.5239 18.0002H17.6192C17.7202 18.0002 17.8171 17.96 17.8885 17.8886C17.96 17.8171 18.0001 17.7202 18.0001 17.6192V11.5239C18.0001 11.4229 17.96 11.326 17.8885 11.2546C17.8171 11.1831 17.7202 11.143 17.6192 11.143ZM17.2382 17.2383H11.9048V11.9049H17.2382V17.2383Z" fill="white"/>
<path d="M8.09528 8.09533V9.09533H9.09528V8.09533H8.09528ZM2.76191 8.09533H1.76191V9.09533H2.76191V8.09533ZM2.76191 2.76196V1.76196H1.76191V2.76196H2.76191ZM8.09528 2.76196H9.09528V1.76196H8.09528V2.76196ZM17.2382 8.09533V9.09533H18.2382V8.09533H17.2382ZM11.9048 8.09533H10.9048V9.09533H11.9048V8.09533ZM11.9048 2.76196V1.76196H10.9048V2.76196H11.9048ZM17.2382 2.76196H18.2382V1.76196H17.2382V2.76196ZM2 17.6192H1V17.6193L2 17.6192ZM2.38095 18.0002L2.3809 19.0002H2.38095V18.0002ZM8.47623 18.0002L8.47623 19.0002H8.47628L8.47623 18.0002ZM8.85719 17.6192L9.85719 17.6193V17.6192H8.85719ZM8.09528 17.2383V18.2383H9.09528V17.2383H8.09528ZM2.76191 17.2383H1.76191V18.2383H2.76191V17.2383ZM2.76191 11.9049V10.9049H1.76191V11.9049H2.76191ZM8.09528 11.9049H9.09528V10.9049H8.09528V11.9049ZM11.1429 17.6192H10.1429V17.6193L11.1429 17.6192ZM11.5239 18.0002L11.5238 19.0002H11.5239V18.0002ZM17.6192 18.0002V19.0002H17.6192L17.6192 18.0002ZM18.0001 17.6192L19.0001 17.6193V17.6192H18.0001ZM17.2382 17.2383V18.2383H18.2382V17.2383H17.2382ZM11.9048 17.2383H10.9048V18.2383H11.9048V17.2383ZM11.9048 11.9049V10.9049H10.9048V11.9049H11.9048ZM17.2382 11.9049H18.2382V10.9049H17.2382V11.9049ZM8.47623 2.00005V1.00005H2.38095V2.00005V3.00005H8.47623V2.00005ZM2.38095 2.00005V1.00005C2.0147 1.00005 1.66345 1.14555 1.40447 1.40453L2.11158 2.11163L2.81869 2.81874C2.70259 2.93483 2.54514 3.00005 2.38095 3.00005V2.00005ZM2.11158 2.11163L1.40447 1.40453C1.14549 1.6635 1 2.01476 1 2.38101H2H3C3 2.54519 2.93478 2.70265 2.81869 2.81874L2.11158 2.11163ZM2 2.38101H1V8.47629H2H3V2.38101H2ZM2 8.47629H1C1 8.84254 1.14549 9.19379 1.40447 9.45277L2.11158 8.74566L2.81869 8.03856C2.93478 8.15465 3 8.31211 3 8.47629H2ZM2.11158 8.74566L1.40447 9.45277C1.66345 9.71175 2.0147 9.85724 2.38095 9.85724V8.85724V7.85724C2.54513 7.85724 2.70259 7.92246 2.81869 8.03856L2.11158 8.74566ZM2.38095 8.85724V9.85724H8.47623V8.85724V7.85724H2.38095V8.85724ZM8.47623 8.85724V9.85724C8.84248 9.85724 9.19374 9.71175 9.45272 9.45277L8.74561 8.74566L8.0385 8.03856C8.1546 7.92246 8.31206 7.85724 8.47623 7.85724V8.85724ZM8.74561 8.74566L9.45272 9.45277C9.7117 9.19379 9.85719 8.84254 9.85719 8.47629H8.85719H7.85719C7.85719 8.31211 7.92241 8.15465 8.0385 8.03856L8.74561 8.74566ZM8.85719 8.47629H9.85719V2.38101H8.85719H7.85719V8.47629H8.85719ZM8.85719 2.38101H9.85719C9.85719 2.01476 9.7117 1.66351 9.45272 1.40453L8.74561 2.11163L8.0385 2.81874C7.92241 2.70264 7.85719 2.54519 7.85719 2.38101H8.85719ZM8.74561 2.11163L9.45272 1.40453C9.19374 1.14555 8.84249 1.00005 8.47623 1.00005V2.00005V3.00005C8.31205 3.00005 8.1546 2.93483 8.0385 2.81874L8.74561 2.11163ZM8.09528 8.09533V7.09533H2.76191V8.09533V9.09533H8.09528V8.09533ZM2.76191 8.09533H3.76191V2.76196H2.76191H1.76191V8.09533H2.76191ZM2.76191 2.76196V3.76196H8.09528V2.76196V1.76196H2.76191V2.76196ZM8.09528 2.76196H7.09528V8.09533H8.09528H9.09528V2.76196H8.09528ZM17.6192 2.00005V1.00005H11.5239V2.00005V3.00005H17.6192V2.00005ZM11.5239 2.00005V1.00005C11.1576 1.00005 10.8064 1.14555 10.5474 1.40453L11.2545 2.11163L11.9616 2.81874C11.8455 2.93483 11.6881 3.00005 11.5239 3.00005V2.00005ZM11.2545 2.11163L10.5474 1.40453C10.2884 1.66351 10.1429 2.01476 10.1429 2.38101H11.1429H12.1429C12.1429 2.54519 12.0777 2.70264 11.9616 2.81874L11.2545 2.11163ZM11.1429 2.38101H10.1429V8.47629H11.1429H12.1429V2.38101H11.1429ZM11.1429 8.47629H10.1429C10.1429 8.84254 10.2884 9.19379 10.5474 9.45277L11.2545 8.74566L11.9616 8.03856C12.0777 8.15465 12.1429 8.31211 12.1429 8.47629H11.1429ZM11.2545 8.74566L10.5474 9.45277C10.8064 9.71175 11.1576 9.85724 11.5239 9.85724V8.85724V7.85724C11.6881 7.85724 11.8455 7.92246 11.9616 8.03856L11.2545 8.74566ZM11.5239 8.85724V9.85724H17.6192V8.85724V7.85724H11.5239V8.85724ZM17.6192 8.85724V9.85724C17.9854 9.85724 18.3367 9.71175 18.5956 9.45277L17.8885 8.74566L17.1814 8.03856C17.2975 7.92246 17.455 7.85724 17.6192 7.85724V8.85724ZM17.8885 8.74566L18.5956 9.45277C18.8546 9.19379 19.0001 8.84254 19.0001 8.47629H18.0001H17.0001C17.0001 8.31211 17.0653 8.15465 17.1814 8.03856L17.8885 8.74566ZM18.0001 8.47629H19.0001V2.38101H18.0001H17.0001V8.47629H18.0001ZM18.0001 2.38101H19.0001C19.0001 2.01476 18.8546 1.66351 18.5956 1.40453L17.8885 2.11163L17.1814 2.81874C17.0653 2.70264 17.0001 2.54519 17.0001 2.38101H18.0001ZM17.8885 2.11163L18.5956 1.40453C18.3367 1.14555 17.9854 1.00005 17.6192 1.00005V2.00005V3.00005C17.455 3.00005 17.2975 2.93483 17.1814 2.81874L17.8885 2.11163ZM17.2382 8.09533V7.09533H11.9048V8.09533V9.09533H17.2382V8.09533ZM11.9048 8.09533H12.9048V2.76196H11.9048H10.9048V8.09533H11.9048ZM11.9048 2.76196V3.76196H17.2382V2.76196V1.76196H11.9048V2.76196ZM17.2382 2.76196H16.2382V8.09533H17.2382H18.2382V2.76196H17.2382ZM8.47623 11.143V10.143H2.38095V11.143V12.143H8.47623V11.143ZM2.38095 11.143V10.143C2.0147 10.143 1.66345 10.2885 1.40447 10.5474L2.11158 11.2546L2.81869 11.9617C2.70259 12.0778 2.54513 12.143 2.38095 12.143V11.143ZM2.11158 11.2546L1.40447 10.5474C1.14549 10.8064 1 11.1577 1 11.5239H2H3C3 11.6881 2.93478 11.8456 2.81869 11.9617L2.11158 11.2546ZM2 11.5239H1V17.6192H2H3V11.5239H2ZM2 17.6192L1 17.6193C1.00002 17.9855 1.14551 18.3367 1.40448 18.5957L2.11158 17.8886L2.81869 17.1815C2.93477 17.2976 2.99999 17.455 3 17.6192L2 17.6192ZM2.11158 17.8886L1.40448 18.5957C1.66344 18.8547 2.01467 19.0001 2.3809 19.0002L2.38095 18.0002L2.381 17.0002C2.54517 17.0002 2.70261 17.0654 2.81869 17.1815L2.11158 17.8886ZM2.38095 18.0002V19.0002H8.47623V18.0002V17.0002H2.38095V18.0002ZM8.47623 18.0002L8.47628 19.0002C8.84252 19.0001 9.19375 18.8547 9.45271 18.5957L8.7456 17.8886L8.0385 17.1815C8.15458 17.0654 8.31202 17.0002 8.47618 17.0002L8.47623 18.0002ZM8.7456 17.8886L9.45271 18.5957C9.71168 18.3367 9.85717 17.9855 9.85719 17.6193L8.85719 17.6192L7.85719 17.6192C7.8572 17.455 7.92242 17.2976 8.0385 17.1815L8.7456 17.8886ZM8.85719 17.6192H9.85719V11.5239H8.85719H7.85719V17.6192H8.85719ZM8.85719 11.5239H9.85719C9.85719 11.1577 9.7117 10.8064 9.45272 10.5474L8.74561 11.2546L8.0385 11.9617C7.92241 11.8456 7.85719 11.6881 7.85719 11.5239H8.85719ZM8.74561 11.2546L9.45272 10.5474C9.19374 10.2885 8.84248 10.143 8.47623 10.143V11.143V12.143C8.31206 12.143 8.1546 12.0778 8.0385 11.9617L8.74561 11.2546ZM8.09528 17.2383V16.2383H2.76191V17.2383V18.2383H8.09528V17.2383ZM2.76191 17.2383H3.76191V11.9049H2.76191H1.76191V17.2383H2.76191ZM2.76191 11.9049V12.9049H8.09528V11.9049V10.9049H2.76191V11.9049ZM8.09528 11.9049H7.09528V17.2383H8.09528H9.09528V11.9049H8.09528ZM17.6192 11.143V10.143H11.5239V11.143V12.143H17.6192V11.143ZM11.5239 11.143V10.143C11.1576 10.143 10.8064 10.2885 10.5474 10.5474L11.2545 11.2546L11.9616 11.9617C11.8455 12.0778 11.6881 12.143 11.5239 12.143V11.143ZM11.2545 11.2546L10.5474 10.5474C10.2884 10.8064 10.1429 11.1577 10.1429 11.5239H11.1429H12.1429C12.1429 11.6881 12.0777 11.8456 11.9616 11.9617L11.2545 11.2546ZM11.1429 11.5239H10.1429V17.6192H11.1429H12.1429V11.5239H11.1429ZM11.1429 17.6192L10.1429 17.6193C10.1429 17.9855 10.2884 18.3367 10.5474 18.5957L11.2545 17.8886L11.9616 17.1815C12.0777 17.2976 12.1429 17.455 12.1429 17.6192L11.1429 17.6192ZM11.2545 17.8886L10.5474 18.5957C10.8064 18.8547 11.1576 19.0001 11.5238 19.0002L11.5239 18.0002L11.5239 17.0002C11.6881 17.0002 11.8455 17.0654 11.9616 17.1815L11.2545 17.8886ZM11.5239 18.0002V19.0002H17.6192V18.0002V17.0002H11.5239V18.0002ZM17.6192 18.0002L17.6192 19.0002C17.9854 19.0001 18.3367 18.8547 18.5956 18.5957L17.8885 17.8886L17.1814 17.1815C17.2975 17.0654 17.4549 17.0002 17.6191 17.0002L17.6192 18.0002ZM17.8885 17.8886L18.5956 18.5957C18.8546 18.3367 19.0001 17.9855 19.0001 17.6193L18.0001 17.6192L17.0001 17.6192C17.0001 17.455 17.0653 17.2976 17.1814 17.1815L17.8885 17.8886ZM18.0001 17.6192H19.0001V11.5239H18.0001H17.0001V17.6192H18.0001ZM18.0001 11.5239H19.0001C19.0001 11.1577 18.8546 10.8064 18.5956 10.5474L17.8885 11.2546L17.1814 11.9617C17.0653 11.8456 17.0001 11.6881 17.0001 11.5239H18.0001ZM17.8885 11.2546L18.5956 10.5474C18.3367 10.2885 17.9854 10.143 17.6192 10.143V11.143V12.143C17.455 12.143 17.2975 12.0778 17.1814 11.9617L17.8885 11.2546ZM17.2382 17.2383V16.2383H11.9048V17.2383V18.2383H17.2382V17.2383ZM11.9048 17.2383H12.9048V11.9049H11.9048H10.9048V17.2383H11.9048ZM11.9048 11.9049V12.9049H17.2382V11.9049V10.9049H11.9048V11.9049ZM17.2382 11.9049H16.2382V17.2383H17.2382H18.2382V11.9049H17.2382Z" fill="white" mask="url(#path-1-inside-1_78_437)"/>
</svg>
